<?xml version="1.0" encoding="UTF-8"?>
<svg version="1.1" xmlns="http://www.w3.org/2000/svg" width="546" height="546">
<path d="M0 0 C2.1604525 -0.00505674 4.32090384 -0.01063391 6.48135376 -0.01669312 C12.18269278 -0.02879812 17.88391293 -0.02575701 23.58525467 -0.01687241 C27.11428253 -0.01169435 30.64330161 -0.0097329 34.17233276 -0.00820923 C86.64243471 0.03127187 86.64243471 0.03127187 112.72265625 1.61328125 C114.20304886 1.70142593 114.20304886 1.70142593 115.71334839 1.79135132 C125.95261265 2.4293856 136.13206135 3.45446889 146.3125 4.71875 C147.23511124 4.83003738 148.15772247 4.94132477 149.10829163 5.0559845 C166.8801549 7.3919745 166.8801549 7.3919745 171.61328125 12.49609375 C174.27860146 16.1432737 176.17928373 20.01797103 177.91015625 24.17578125 C178.23959229 24.93753662 178.56902832 25.69929199 178.90844727 26.48413086 C181.33322415 32.15431778 183.5811177 37.89149424 185.82958984 43.63330078 C195.50418948 70.7297962 195.50418948 70.7297962 216.0859375 89.24609375 C236.63780692 96.2969257 258.6614479 96.66846318 280.14428711 97.40527344 C283.07572048 97.50827166 286.00654097 97.62267641 288.9375 97.73828125 C289.83629379 97.76543213 290.73508759 97.79258301 291.66111755 97.82055664 C292.89995445 97.87070923 292.89995445 97.87070923 294.16381836 97.921875 C295.25272621 97.95945923 295.25272621 97.95945923 296.3636322 97.99780273 C298.16015625 98.30078125 298.16015625 98.30078125 300.16015625 100.30078125 C299.98203835 103.00038064 299.31266625 104.13591512 297.47265625 106.125 C286.23240514 115.18175638 273.82274503 121.0302601 260.22265625 125.67578125 C258.83216064 126.15821289 258.83216064 126.15821289 257.41357422 126.65039062 C241.7273854 131.74712242 226.04377043 132.82306521 209.66015625 132.67578125 C208.286353 132.66930069 208.286353 132.66930069 206.88479614 132.66268921 C191.80401178 132.57960355 177.05533051 131.82403393 162.16015625 129.30078125 C161.06880371 129.11854004 159.97745117 128.93629883 158.85302734 128.74853516 C129.44606565 123.69322378 129.44606565 123.69322378 123.1171875 117.20703125 C120.570815 113.42559185 118.8933443 109.50549307 117.16015625 105.30078125 C116.7835083 104.40593018 116.40686035 103.5110791 116.01879883 102.58911133 C113.93947559 97.63310522 111.89587797 92.66234044 109.84786987 87.69332886 C109.31319852 86.39613919 108.77830618 85.09904059 108.24319458 83.80203247 C106.93096677 80.62078807 105.62240557 77.43815826 104.32226562 74.25195312 C100.62637874 65.09244427 100.62637874 65.09244427 96.16015625 56.30078125 C93.33003498 55.35740749 91.61715707 55.17905296 88.6887207 55.18725586 C87.78801346 55.18733139 86.88730621 55.18740692 85.95930481 55.18748474 C84.50605049 55.19522667 84.50605049 55.19522667 83.0234375 55.203125 C82.02886032 55.20453995 81.03428314 55.2059549 80.00956726 55.20741272 C76.83056643 55.21301364 73.65163582 55.22556629 70.47265625 55.23828125 C68.31836039 55.24329613 66.16406343 55.24785906 64.00976562 55.25195312 C58.72653851 55.26298337 53.4433524 55.27972239 48.16015625 55.30078125 C51.53759958 76.33926679 55.17186942 97.29338859 59.72265625 118.11328125 C59.98851028 119.34714066 59.98851028 119.34714066 60.25973511 120.60592651 C62.26477145 129.86730698 64.54000203 139.02513506 67.1875 148.125 C67.42287979 148.95457718 67.65825958 149.78415436 67.90077209 150.63887024 C69.33023916 155.40640426 70.82596064 159.49174096 74.16015625 163.30078125 C77.08163592 164.58267745 77.08163592 164.58267745 80.59765625 164.9921875 C81.61835205 165.15491905 81.61835205 165.15491905 82.65966797 165.32093811 C96.02976525 167.32176138 109.56691712 168.33864968 123.02099609 169.6003418 C145.50321459 171.72386899 167.62989551 174.43018099 189.47265625 180.30078125 C190.76345746 180.63494392 192.05447468 180.96827328 193.34570312 181.30078125 C210.18427183 185.72879726 210.18427183 185.72879726 215.16015625 188.30078125 C215.49015625 189.29078125 215.82015625 190.28078125 216.16015625 191.30078125 C213.76332217 194.40002824 212.4497913 195.24306248 208.54792786 196.02062988 C207.06962226 196.14398933 205.58953332 196.2469924 204.10864258 196.33398438 C202.88722738 196.42774573 202.88722738 196.42774573 201.64113712 196.52340126 C198.9257922 196.72727011 196.20938382 196.90468731 193.4921875 197.08203125 C191.56646823 197.22095377 189.6408611 197.36143848 187.71536255 197.50338745 C182.5412741 197.87997691 177.36584031 198.23336429 172.18980026 198.58196259 C167.90423652 198.87345135 163.61967446 199.17835676 159.33507252 199.48361015 C145.61264939 200.4611422 131.88731568 201.39238269 118.16015625 202.30078125 C117.25088882 202.36095932 116.3416214 202.42113739 115.40480042 202.48313904 C98.9815471 203.56781756 82.55560498 204.6067718 66.125 205.57421875 C65.10995392 205.63431122 64.09490784 205.69440369 63.04910278 205.75631714 C59.75321808 205.94650583 56.45678895 206.12402648 53.16015625 206.30078125 C52.07362762 206.36310283 52.07362762 206.36310283 50.96514893 206.42668343 C36.12132977 207.27256703 21.31493122 207.46404829 6.44921875 207.46875 C3.98782331 207.47198144 1.52642805 207.47534673 -0.93496704 207.47883606 C-6.08685751 207.48478792 -11.23873134 207.48668071 -16.390625 207.48608398 C-21.54593494 207.48600376 -26.70115405 207.49278483 -31.85644531 207.5065918 C-67.8982903 207.60148987 -103.83422783 206.92716492 -139.83984375 205.30078125 C-141.67045003 205.21953515 -143.50105709 205.13830673 -145.33166504 205.05709839 C-154.4983999 204.64592921 -163.66098415 204.18335089 -172.82202148 203.66064453 C-175.71639165 203.4963179 -178.611087 203.344592 -181.5065918 203.20166016 C-185.15663564 203.02147626 -188.80524996 202.82319622 -192.45357704 202.6111412 C-194.4449937 202.49961192 -196.43737706 202.4057816 -198.42973328 202.31253052 C-199.61331924 202.23920502 -200.79690521 202.16587952 -202.01635742 202.09033203 C-203.04959641 202.03418732 -204.08283539 201.9780426 -205.14738464 201.92019653 C-208.43514477 201.16382892 -209.7025037 199.84914746 -211.83984375 197.30078125 C-211.50984375 196.31078125 -211.17984375 195.32078125 -210.83984375 194.30078125 C-208.05297852 193.29321289 -208.05297852 193.29321289 -204.21875 192.3984375 C-203.51383926 192.23263687 -202.80892853 192.06683624 -202.08265686 191.89601135 C-193.04134187 189.81409255 -183.92855292 188.05435509 -174.81567383 186.31860352 C-171.80448834 185.74346588 -168.79580994 185.15633981 -165.78710938 184.56835938 C-152.19135455 181.94405155 -138.58587474 179.9479629 -124.83984375 178.30078125 C-123.3715908 178.12111647 -121.90340459 177.940905 -120.43530273 177.76000977 C-117.8764178 177.4451843 -115.31742402 177.13124182 -112.75830078 176.81835938 C-87.97354134 175.32734872 -87.97354134 175.32734872 -65.83984375 166.30078125 C-64.30945656 163.35526616 -64.13100937 160.57355436 -63.83984375 157.30078125 C-63.75693588 156.37303894 -63.67402802 155.44529663 -63.58860779 154.48944092 C-62.90244185 146.09958441 -62.58146657 137.73040963 -62.375 129.31640625 C-62.33682034 127.88945348 -62.29818897 126.46251274 -62.25914001 125.0355835 C-62.09654421 119.06685244 -61.94132051 113.0979404 -61.7902832 107.12890625 C-61.37573361 90.84838504 -60.83838804 74.58958114 -59.859375 58.33203125 C-59.79912486 57.31260815 -59.79912486 57.31260815 -59.73765755 56.27259064 C-57.21084655 14.09088077 -57.21084655 14.09088077 -47.83984375 4.30078125 C-43.40235714 2.01197374 -38.84988511 1.65370074 -33.95483398 1.19458008 C-32.63841872 1.06835502 -32.63841872 1.06835502 -31.2954092 0.93957996 C-20.87051149 0.02089782 -10.45783052 -0.0064914 0 0 Z " fill="#00FF1E" transform="translate(245.83984375,10.69921875)"/>
<path d="M0 0 C0.85470886 -0.00946152 1.70941772 -0.01892303 2.59002686 -0.02867126 C3.527276 -0.03306717 4.46452515 -0.03746307 5.43017578 -0.04199219 C6.39932922 -0.0490065 7.36848267 -0.05602081 8.36700439 -0.06324768 C11.53654519 -0.08091237 14.70589987 -0.08711354 17.87548828 -0.08886719 C19.48614166 -0.0898793 19.48614166 -0.0898793 21.1293335 -0.09091187 C91.27012358 -0.02059891 91.27012358 -0.02059891 112.62158203 20.71972656 C113.40662109 21.52539062 114.19166016 22.33105469 115.00048828 23.16113281 C115.54181396 23.68634521 116.08313965 24.21155762 116.64086914 24.75268555 C135.5966512 43.23256859 149.17561343 68.68735711 158.06298828 93.41113281 C164.34874564 110.76542962 173.66389346 126.89789603 191.00048828 135.16113281 C211.84847556 143.21084288 237.31942872 143.74347453 258.00048828 135.16113281 C267.91294117 130.62972578 275.73067845 124.37756039 280.00048828 114.16113281 C285.01804827 99.68639169 281.44108526 83.48651653 275.37548828 69.91113281 C268.79923874 56.75863372 259.49552052 50.41729652 246.56298828 43.91113281 C245.28708813 43.25874558 244.01129205 42.60615481 242.7355957 41.95336914 C233.17891297 37.09963409 223.46676772 32.66499398 213.59448242 28.48632812 C212.13449829 27.86709473 212.13449829 27.86709473 210.64501953 27.23535156 C209.79270752 26.88045654 208.94039551 26.52556152 208.06225586 26.15991211 C206.00048828 25.16113281 206.00048828 25.16113281 204.00048828 23.16113281 C204.00048828 21.16113281 204.00048828 21.16113281 205.00048828 19.16113281 C210.23962168 16.83680962 215.47407078 16.68916406 221.109375 16.41503906 C222.11579544 16.35943817 223.12221588 16.30383728 224.15913391 16.24655151 C227.49910022 16.06414576 230.83956359 15.89376677 234.18017578 15.72363281 C236.54529228 15.59740984 238.91037356 15.47052543 241.27542114 15.34301758 C246.2636012 15.07579937 251.25202783 14.81406709 256.24072266 14.55664062 C262.4797828 14.23463873 268.71830254 13.90341175 274.9566803 13.56847668 C364.20136527 8.78064665 364.20136527 8.78064665 396.90039062 8.84545898 C400.41449837 8.84878819 403.92788002 8.82431664 407.44189453 8.79980469 C409.71663309 8.79754512 411.99137384 8.79682188 414.26611328 8.79785156 C415.29794739 8.78864182 416.32978149 8.77943207 417.3928833 8.76994324 C418.33879333 8.77617203 419.28470337 8.78240082 420.25927734 8.78881836 C421.08268616 8.78818893 421.90609497 8.78755951 422.75445557 8.78691101 C425.572389 9.25641981 426.93373487 10.21367286 429.00048828 12.16113281 C430.20353142 15.77026222 430.18107527 19.0935197 430.20361328 22.85253906 C430.21062759 23.62124329 430.21764191 24.38994751 430.22486877 25.1819458 C430.24250763 27.69590011 430.24873557 30.2096186 430.25048828 32.72363281 C430.25116302 33.58225922 430.25183777 34.44088562 430.25253296 35.32553101 C430.2151966 65.25498477 429.32321144 111.55094204 407.75048828 135.09863281 C386.88926365 153.78775596 347.70428284 154.28029971 321.25689697 156.93395996 C319.76667145 157.0839943 318.27671156 157.23669378 316.78704834 157.39221191 C291.107819 160.06862069 265.43819267 160.45005305 239.64421082 160.47120667 C237.17787875 160.47358235 234.71156581 160.47889026 232.24523926 160.48449707 C214.50732913 160.51404743 196.82305635 160.20128454 179.10986328 159.22753906 C178.35672977 159.18615625 177.60359627 159.14477345 176.82764053 159.10213661 C95.88316818 154.55379021 95.88316818 154.55379021 79.11767578 136.71191406 C69.21963885 124.78678838 62.19463738 110.80004047 55.00048828 97.16113281 C54.51322266 96.23768066 54.02595703 95.31422852 53.52392578 94.36279297 C52.05339176 91.56868003 50.58805069 88.77192624 49.12548828 85.97363281 C48.63508057 85.03559814 48.14467285 84.09756348 47.6394043 83.13110352 C44.91005616 77.88996078 42.22826527 72.62859956 39.59033203 67.34082031 C28.17344316 44.6055188 14.25746043 23.83125695 -4.69873047 6.61816406 C-5.12798828 6.13734375 -5.55724609 5.65652344 -5.99951172 5.16113281 C-5.46547793 0.6218456 -4.33125393 0.03936395 0 0 Z " fill="#00FF1E" transform="translate(5.99951171875,373.8388671875)"/>
<path d="M0 0 C2.2944609 2.2944609 1.30848674 8.20562482 1.32348633 11.40820312 C1.23661551 17.24887955 0.51417989 21.18055329 -3 26 C-5.66231369 26.8874379 -7.27049413 27.14255871 -10.0052948 27.19618225 C-11.22311897 27.22348671 -11.22311897 27.22348671 -12.46554565 27.25134277 C-13.35243073 27.26644897 -14.2393158 27.28155518 -15.15307617 27.29711914 C-16.55824745 27.32659889 -16.55824745 27.32659889 -17.99180603 27.35667419 C-21.09212166 27.42061032 -24.19252307 27.47790429 -27.29296875 27.53515625 C-29.44103299 27.57815934 -31.58908899 27.62157587 -33.73713684 27.66539001 C-39.39399777 27.77965978 -45.05095345 27.88830102 -50.70794678 27.99578857 C-56.47919341 28.10643729 -62.2503333 28.2223838 -68.02148438 28.33789062 C-79.34755784 28.56379235 -90.67373841 28.78375078 -102 29 C-102.33 32.63 -102.66 36.26 -103 40 C-102.08482101 39.96241577 -101.16964203 39.92483154 -100.22673035 39.8861084 C-91.56243587 39.53068598 -82.89805633 39.1774286 -74.23357677 38.82654572 C-69.78009916 38.6461196 -65.32665768 38.46488406 -60.87329102 38.28173828 C-56.56803875 38.10471458 -52.26270188 37.92989599 -47.95730019 37.75654602 C-46.32240983 37.69034329 -44.68755035 37.623373 -43.05272484 37.55558777 C-12.1509256 36.27613468 -12.1509256 36.27613468 -8.38671875 39.29296875 C-3.91421645 44.79855609 -4.36653875 54.31026532 -5 61 C-6.77533295 69.1835553 -6.77533295 69.1835553 -11 72 C-13.89006042 72.39648438 -13.89006042 72.39648438 -17.36010742 72.59375 C-18.61673187 72.66722656 -19.87335632 72.74070312 -21.1680603 72.81640625 C-26.85732417 73.08898708 -32.54533458 73.3200077 -38.23828125 73.5 C-39.44332809 73.54060547 -40.64837494 73.58121094 -41.88993835 73.62304688 C-45.69738096 73.75118707 -49.50492166 73.8759636 -53.3125 74 C-77.74174895 72.74107772 -77.74174895 72.74107772 -101 77 C-101.46777038 79.057494 -101.46777038 79.057494 -101.625 81.4375 C-101.69976562 82.24058594 -101.77453125 83.04367187 -101.8515625 83.87109375 C-101.94735428 85.24494947 -102 86.6228088 -102 88 C-100.51328545 87.99333817 -100.51328545 87.99333817 -98.99653625 87.98654175 C-89.65335643 87.94598834 -80.31019449 87.91601206 -70.9669466 87.89637566 C-66.16355532 87.88594101 -61.36023513 87.87178756 -56.55688477 87.84912109 C-51.92089833 87.82738145 -47.28498024 87.81542897 -42.64894676 87.81024551 C-40.88072827 87.80655178 -39.11251349 87.79933887 -37.34432411 87.78853989 C-34.86659298 87.77401008 -32.38914387 87.77202268 -29.91137695 87.77294922 C-29.18129425 87.76575867 -28.45121155 87.75856812 -27.69900513 87.75115967 C-23.70763951 87.76729715 -20.543514 88.09666621 -17 90 C-14.95042026 94.09915948 -15.77070785 99.37104207 -15.75 103.875 C-15.7190625 105.49921875 -15.7190625 105.49921875 -15.6875 107.15625 C-15.64606354 115.83718779 -16.50474694 124.37916099 -20.6875 132.125 C-26.769829 137.05661811 -36.24988743 136.57612732 -43.72265625 137.0546875 C-44.94912369 137.13733856 -46.17559113 137.21998962 -47.43922424 137.30514526 C-60.76240749 138.16963573 -74.09457357 138.68526572 -87.4375 139.125 C-88.67039764 139.16735779 -89.90329529 139.20971558 -91.17355347 139.25335693 C-109.11981759 139.86766728 -127.04290488 140.32427037 -145 140 C-146.84128624 136.13195501 -147.15468091 133.53047283 -146.67626953 129.29174805 C-146.55599396 128.17096359 -146.43571838 127.05017914 -146.3117981 125.89543152 C-146.17023285 124.6963063 -146.0286676 123.49718109 -145.8828125 122.26171875 C-145.74680634 121.02581497 -145.61080017 119.78991119 -145.47067261 118.51655579 C-145.1080877 115.24233518 -144.73468084 111.96959005 -144.35595703 108.69720459 C-143.97166 105.35319074 -143.60167748 102.00759682 -143.23046875 98.66210938 C-142.50013866 92.10653974 -141.75551426 85.55271232 -141 79 C-145.02423468 78.13273391 -148.68819971 77.8958404 -152.8125 77.9375 C-154.55466797 77.95103516 -154.55466797 77.95103516 -156.33203125 77.96484375 C-157.21246094 77.97644531 -158.09289062 77.98804688 -159 78 C-159.08557663 78.99334602 -159.08557663 78.99334602 -159.17288208 80.00675964 C-160.05769146 90.03406789 -161.25291611 100.0169895 -162.47412109 110.00805664 C-162.74239258 112.21941755 -163.00603076 114.43134526 -163.26513672 116.64379883 C-163.64260572 119.86418536 -164.03456734 123.08251858 -164.4296875 126.30078125 C-164.54230927 127.28524734 -164.65493103 128.26971344 -164.77096558 129.28401184 C-165.9711349 138.79974363 -165.9711349 138.79974363 -169 143 C-171.50732422 144.13232422 -171.50732422 144.13232422 -174.6796875 144.6796875 C-175.93362305 144.89979492 -177.18755859 145.11990234 -178.47949219 145.34667969 C-179.98548312 145.57022189 -181.49241132 145.78750015 -183 146 C-184.30330261 146.18616882 -184.30330261 146.18616882 -185.63293457 146.37609863 C-191.71580851 147.22768517 -197.80722733 147.99652714 -203.90478516 148.73486328 C-207.12618639 149.12514373 -210.34633611 149.5246805 -213.56640625 149.92578125 C-228.42126716 151.76371515 -243.01476343 153.18889812 -258 153.25 C-259.94326172 153.2809375 -259.94326172 153.2809375 -261.92578125 153.3125 C-263.16714844 153.31765625 -264.40851563 153.3228125 -265.6875 153.328125 C-266.80511719 153.3374707 -267.92273438 153.34681641 -269.07421875 153.35644531 C-272.33472475 152.95922078 -273.67007408 152.27137138 -276 150 C-279.59713975 141.7856361 -280.04733157 131.7996388 -279 123 C-277.63593891 120.23409219 -276.68090875 118.49307185 -274.1875 116.6875 C-270.09074784 115.39994932 -267.08524678 115.4935515 -263.1875 117.3125 C-261 119 -261 119 -260 122 C-259.77674186 124.05893621 -259.59294241 126.12233653 -259.4375 128.1875 C-259.35371094 129.27417969 -259.26992188 130.36085938 -259.18359375 131.48046875 C-259.12300781 132.31191406 -259.06242187 133.14335937 -259 134 C-257.35 134.33 -255.7 134.66 -254 135 C-253.96261719 134.19175781 -253.92523438 133.38351562 -253.88671875 132.55078125 C-253.82097656 131.48214844 -253.75523437 130.41351563 -253.6875 129.3125 C-253.62949219 128.25675781 -253.57148438 127.20101562 -253.51171875 126.11328125 C-252.95315675 122.71500707 -252.07378317 120.73384717 -250 118 C-245.08874796 116.36291599 -240.75275949 116.21685214 -236.0625 118.3125 C-234 120 -234 120 -233 123 C-232.85447189 127.00202313 -233.02324095 130.09296379 -234 134 C-231.03 134 -228.06 134 -225 134 C-224.81824219 132.64455078 -224.81824219 132.64455078 -224.6328125 131.26171875 C-224.38144531 129.49248047 -224.38144531 129.49248047 -224.125 127.6875 C-223.96257812 126.51574219 -223.80015625 125.34398437 -223.6328125 124.13671875 C-223 121 -223 121 -221 118 C-216.36924931 116.1883352 -211.64355376 115.32265297 -206.9375 117.1875 C-204 119 -204 119 -203 122 C-202.86718305 125.67106043 -202.95676703 129.32519714 -203 133 C-197.72 132.01 -192.44 131.02 -187 130 C-183.51292558 119.53877675 -184.71408583 106.68432695 -184.4375 95.6875 C-184.39417711 94.06053894 -184.35055916 92.43358571 -184.30664062 90.80664062 C-184.20103469 86.87117547 -184.09938936 82.93562685 -184 79 C-187.63 79.33 -191.26 79.66 -195 80 C-195.17015625 80.89203125 -195.3403125 81.7840625 -195.515625 82.703125 C-195.87914062 84.45882812 -195.87914062 84.45882812 -196.25 86.25 C-196.48203125 87.41015625 -196.7140625 88.5703125 -196.953125 89.765625 C-198.10276811 93.31750744 -199.00364771 94.80652319 -202 97 C-204.62109375 97.6796875 -204.62109375 97.6796875 -207.4375 97.875 C-208.82775391 97.99488281 -208.82775391 97.99488281 -210.24609375 98.1171875 C-213.3046674 97.98703543 -215.29450212 97.42003834 -218 96 C-220.28062828 92.57905758 -220.21925007 91.31812778 -220.125 87.3125 C-220.10695313 86.31863281 -220.08890625 85.32476562 -220.0703125 84.30078125 C-220.04710937 83.54152344 -220.02390625 82.78226562 -220 82 C-221.65 82.33 -223.3 82.66 -225 83 C-224.94779297 83.99580078 -224.94779297 83.99580078 -224.89453125 85.01171875 C-224.61099479 94.26040804 -224.61099479 94.26040804 -228 98 C-232.38349388 100.78949611 -237.9659592 100.55660939 -243 100 C-246.74186551 98.51626898 -246.74186551 98.51626898 -248 96 C-248.14856188 91.46886254 -248.10529324 87.42117296 -247 83 C-250.465 83.495 -250.465 83.495 -254 84 C-254.17015625 84.61488281 -254.3403125 85.22976563 -254.515625 85.86328125 C-256.49351258 92.45974676 -256.49351258 92.45974676 -258.875 95 C-264.00244494 97.41291526 -269.60908253 97.81182186 -275.12109375 96.4921875 C-277.51106658 95.58882162 -279.06466465 94.67653902 -281 93 C-284.22346324 85.60005671 -284.7975334 77.07056 -285.625 69.125 C-285.74617187 68.04347656 -285.86734375 66.96195312 -285.9921875 65.84765625 C-287.34111485 53.54602529 -288.20477365 41.31524674 -288.24023438 28.93945312 C-288.25015575 26.84207514 -288.28141659 24.74559613 -288.3125 22.6484375 C-288.31901343 21.30469319 -288.32427037 19.96094207 -288.328125 18.6171875 C-288.3374707 17.41690918 -288.34681641 16.21663086 -288.35644531 14.97998047 C-288 12 -288 12 -286.66162109 10.12988281 C-279.82058898 5.47806139 -265.99368701 6.78535025 -257.9296875 6.46875 C-256.85132629 6.42624115 -255.77296509 6.3837323 -254.66192627 6.3399353 C-242.58388669 5.89936148 -230.5028529 5.8008893 -218.418396 5.68936443 C-186.63992195 5.3930242 -154.88709025 4.61339229 -123.125 3.5625 C-121.62818317 3.51310461 -121.62818317 3.51310461 -120.10112762 3.46271133 C-95.17648023 2.63822845 -70.25701015 1.72171992 -45.34020996 0.68640137 C-9.65249339 -0.78652884 -9.65249339 -0.78652884 0 0 Z M-204.11035156 20.44311523 C-205.96312714 20.58842934 -205.96312714 20.58842934 -207.85333252 20.73667908 C-209.19910363 20.84389671 -210.54486762 20.95120384 -211.890625 21.05859375 C-213.27821184 21.16838462 -214.66580554 21.27808889 -216.05340576 21.38771057 C-218.96195711 21.61786544 -221.87041303 21.8491839 -224.77880859 22.08129883 C-228.48824304 22.37723469 -232.19791024 22.670128 -235.90765762 22.96211147 C-238.77496666 23.18816313 -241.64213667 23.41594073 -244.50926971 23.64421272 C-245.87582838 23.75279273 -247.24243037 23.86082899 -248.60907745 23.96829033 C-255.42886348 24.50540699 -262.22169133 25.06913079 -269 26 C-264.85274656 45.2361936 -264.85274656 45.2361936 -253 60 C-239.02486688 64.65837771 -219.95243117 60.51610999 -206.6875 55 C-200.04833348 51.62854825 -196.66145361 47.90506167 -194 41 C-192.05357144 34.8967918 -191.17918508 28.38545724 -192 22 C-192.99 21.01 -192.99 21.01 -194 20 C-197.4157834 20 -200.70882683 20.17439371 -204.11035156 20.44311523 Z " fill="#00FF1E" transform="translate(461,224)"/>
</svg>
